<?xml version="1.0" encoding="UTF-8"?>
<svg xmlns="http://www.w3.org/2000/svg" xmlns:xlink="http://www.w3.org/1999/xlink" width="100px" height="86px" viewBox="0 0 99 86" version="1.1">
<defs>
<filter id="alpha" filterUnits="objectBoundingBox" x="0%" y="0%" width="100%" height="100%">
  <feColorMatrix type="matrix" in="SourceGraphic" values="0 0 0 0 1 0 0 0 0 1 0 0 0 0 1 0 0 0 1 0"/>
</filter>
<mask id="mask0">
  <g filter="url(#alpha)">
<rect x="0" y="0" width="99" height="86" style="fill:rgb(0%,0%,0%);fill-opacity:0.101961;stroke:none;"/>
  </g>
</mask>
<clipPath id="clip1">
  <rect x="0" y="0" width="99" height="86"/>
</clipPath>
<g id="surface5" clip-path="url(#clip1)">
<path style=" stroke:none;fill-rule:nonzero;fill:rgb(0%,0%,0%);fill-opacity:1;" d="M 45.007812 43.378906 C 45.007812 43.378906 45.996094 41.816406 45.640625 39.425781 C 45.28125 37.035156 43.316406 35.699219 43.316406 35.699219 C 43.316406 35.699219 42.046875 36.695312 43.316406 39.253906 C 43.316406 39.253906 41.765625 40.679688 43.035156 42.953125 "/>
</g>
<mask id="mask1">
  <g filter="url(#alpha)">
<rect x="0" y="0" width="99" height="86" style="fill:rgb(0%,0%,0%);fill-opacity:0.101961;stroke:none;"/>
  </g>
</mask>
<clipPath id="clip2">
  <rect x="0" y="0" width="99" height="86"/>
</clipPath>
<g id="surface8" clip-path="url(#clip2)">
<path style=" stroke:none;fill-rule:nonzero;fill:rgb(0%,0%,0%);fill-opacity:1;" d="M 41.695312 35.484375 L 40.917969 34.277344 C 40.917969 34.277344 37.253906 33.707031 37.675781 34.988281 C 38.097656 36.269531 39.792969 35.699219 39.792969 35.699219 L 40.777344 36.695312 Z M 41.695312 35.484375 "/>
</g>
</defs>
<g id="surface1">
<path style=" stroke:none;fill-rule:nonzero;fill:rgb(90.980392%,7.058824%,37.647059%);fill-opacity:1;" d="M 24.554688 27.617188 C 24.554688 27.617188 13.96875 31.292969 11.941406 34.6875 C 9.910156 38.082031 24.554688 27.617188 24.554688 27.617188 Z M 24.554688 27.617188 "/>
<path style=" stroke:none;fill-rule:nonzero;fill:rgb(24.705882%,23.921569%,33.72549%);fill-opacity:1;" d="M 6.265625 39.386719 C 6.117188 39.398438 5.972656 39.34375 5.867188 39.238281 C 5.535156 38.9375 5.804688 38.371094 6.035156 37.972656 C 9.132812 32.617188 24.703125 26.976562 25.363281 26.738281 L 26.785156 26.226562 L 25.566406 27.128906 C 25.523438 27.164062 20.992188 30.507812 16.355469 33.65625 C 9.148438 38.554688 7.007812 39.386719 6.265625 39.386719 Z M 23.980469 27.738281 C 19.890625 29.335938 8.875 33.949219 6.417969 38.199219 C 6.089844 38.761719 6.160156 38.90625 6.160156 38.90625 C 6.226562 38.976562 7.0625 39.429688 16.054688 33.324219 C 19.191406 31.195312 22.28125 28.972656 23.980469 27.738281 Z M 23.980469 27.738281 "/>
<path style=" stroke:none;fill-rule:nonzero;fill:rgb(90.980392%,7.058824%,37.647059%);fill-opacity:1;" d="M 24.324219 23.945312 C 24.324219 23.945312 14.570312 22.933594 11.613281 24.660156 C 8.652344 26.390625 24.324219 23.945312 24.324219 23.945312 Z M 24.324219 23.945312 "/>
<path style=" stroke:none;fill-rule:nonzero;fill:rgb(24.705882%,23.921569%,33.72549%);fill-opacity:1;" d="M 11.035156 25.597656 C 7.621094 25.597656 7.386719 25.046875 7.277344 24.792969 C 7.0625 24.289062 7.660156 23.8125 7.855469 23.65625 C 12.089844 20.285156 24.949219 23.691406 25.492188 23.839844 L 26.539062 24.121094 L 25.46875 24.273438 C 25.425781 24.28125 21.117188 24.898438 16.769531 25.285156 C 14.234375 25.511719 12.386719 25.597656 11.035156 25.597656 Z M 14.027344 22.625 C 11.621094 22.625 9.421875 22.976562 8.128906 24.007812 C 7.742188 24.316406 7.644531 24.523438 7.683594 24.617188 C 7.785156 24.851562 8.726562 25.554688 16.730469 24.84375 C 19.710938 24.578125 22.675781 24.203125 24.25 23.992188 C 22.234375 23.523438 17.867188 22.625 14.027344 22.625 Z M 14.027344 22.625 "/>
<path style=" stroke:none;fill-rule:nonzero;fill:rgb(90.980392%,7.058824%,37.647059%);fill-opacity:1;" d="M 27.117188 22.210938 C 27.117188 22.210938 22.210938 10.332031 23.398438 9.152344 C 24.585938 7.976562 27.117188 22.210938 27.117188 22.210938 Z M 27.117188 22.210938 "/>
<path style=" stroke:none;fill-rule:nonzero;fill:rgb(24.705882%,23.921569%,33.72549%);fill-opacity:1;" d="M 27.386719 23.257812 L 26.777344 21.683594 C 26.761719 21.648438 25.269531 17.789062 24.039062 13.820312 C 21.507812 5.640625 22.542969 4.945312 22.886719 4.714844 C 23.058594 4.589844 23.28125 4.570312 23.472656 4.664062 C 25.386719 5.5625 27.023438 19.941406 27.203125 21.578125 Z M 23.222656 5.050781 C 23.1875 5.054688 23.15625 5.066406 23.128906 5.085938 C 21.910156 5.90625 24.382812 13.976562 26.554688 19.851562 C 25.808594 13.792969 24.4375 5.609375 23.285156 5.066406 C 23.265625 5.058594 23.242188 5.050781 23.222656 5.050781 Z M 23.222656 5.050781 "/>
<path style=" stroke:none;fill-rule:nonzero;fill:rgb(90.980392%,7.058824%,37.647059%);fill-opacity:1;" d="M 28.96875 24.824219 C 28.96875 24.824219 31.601562 12.816406 34.359375 12.816406 C 37.121094 12.816406 28.96875 24.824219 28.96875 24.824219 Z M 28.96875 24.824219 "/>
<path style=" stroke:none;fill-rule:nonzero;fill:rgb(24.705882%,23.921569%,33.72549%);fill-opacity:1;" d="M 28.273438 25.652344 L 28.535156 24.664062 C 28.726562 23.941406 33.273438 6.90625 38.242188 6.90625 C 38.925781 6.90625 39.21875 7.226562 39.34375 7.496094 C 40.671875 10.328125 30.125 23.382812 28.917969 24.863281 Z M 38.242188 7.351562 C 34.277344 7.351562 30.332031 19.996094 29.25 23.746094 C 32.808594 19.285156 39.902344 9.730469 38.945312 7.6875 C 38.90625 7.605469 38.789062 7.351562 38.242188 7.351562 Z M 38.242188 7.351562 "/>
<path style=" stroke:none;fill-rule:nonzero;fill:rgb(90.980392%,7.058824%,37.647059%);fill-opacity:1;" d="M 30.515625 24.945312 C 30.515625 24.945312 39.566406 19.175781 58.113281 20.9375 C 76.660156 22.695312 30.515625 24.945312 30.515625 24.945312 Z M 30.515625 24.945312 "/>
<path style=" stroke:none;fill-rule:nonzero;fill:rgb(24.705882%,23.921569%,33.72549%);fill-opacity:1;" d="M 29.898438 25.183594 L 30.371094 24.777344 C 30.46875 24.691406 32.773438 22.726562 37.398438 21.140625 C 41.652344 19.6875 48.746094 18.3125 58.375 20.046875 C 62.441406 20.78125 62.96875 21.328125 62.933594 21.808594 C 62.898438 22.28125 62.816406 23.394531 46.566406 24.425781 C 38.625 24.929688 30.601562 25.164062 30.519531 25.167969 Z M 49.636719 19.683594 C 39.179688 19.683594 33 23.429688 31.207031 24.699219 C 33.328125 24.632812 39.960938 24.398438 46.539062 23.980469 C 61.640625 23.023438 62.480469 21.976562 62.492188 21.773438 C 62.496094 21.753906 62.484375 21.242188 58.296875 20.488281 C 55.4375 19.960938 52.542969 19.691406 49.636719 19.683594 Z M 49.636719 19.683594 "/>
<path style=" stroke:none;fill-rule:nonzero;fill:rgb(90.980392%,7.058824%,37.647059%);fill-opacity:1;" d="M 36.253906 25.621094 C 36.253906 25.621094 52.113281 25.40625 53.003906 27.117188 C 53.894531 28.824219 36.253906 25.621094 36.253906 25.621094 Z M 36.253906 25.621094 "/>
<path style=" stroke:none;fill-rule:nonzero;fill:rgb(24.705882%,23.921569%,33.72549%);fill-opacity:1;" d="M 55.035156 29.984375 C 49.972656 29.984375 37.804688 26.320312 36.191406 25.824219 L 34.867188 25.421875 L 36.25 25.390625 C 38.277344 25.34375 56.101562 25.046875 57.222656 28.664062 C 57.355469 29.09375 57.199219 29.367188 57.046875 29.523438 C 56.726562 29.847656 56.015625 29.984375 55.035156 29.984375 Z M 37.703125 25.816406 C 45.140625 28.015625 55.46875 30.5 56.734375 29.210938 C 56.800781 29.140625 56.871094 29.03125 56.800781 28.796875 C 56.003906 26.226562 43.847656 25.773438 37.703125 25.816406 Z M 37.703125 25.816406 "/>
<path style=" stroke:none;fill-rule:nonzero;fill:rgb(90.980392%,7.058824%,37.647059%);fill-opacity:1;" d="M 33.164062 27.394531 C 33.164062 27.394531 42.742188 31.859375 40.871094 33.234375 C 39 34.609375 33.164062 27.394531 33.164062 27.394531 Z M 33.164062 27.394531 "/>
<path style=" stroke:none;fill-rule:nonzero;fill:rgb(24.705882%,23.921569%,33.72549%);fill-opacity:1;" d="M 46.839844 38.636719 C 42.207031 38.636719 32.773438 27.394531 32.332031 26.871094 L 31.710938 26.125 L 32.59375 26.523438 C 33.234375 26.8125 48.328125 33.675781 48.660156 37.113281 C 48.703125 37.570312 48.503906 37.96875 48.085938 38.265625 C 47.71875 38.519531 47.28125 38.648438 46.839844 38.636719 Z M 33.320312 27.347656 C 36.964844 31.5625 45.070312 39.871094 47.832031 37.902344 C 48.125 37.695312 48.246094 37.457031 48.21875 37.15625 C 47.980469 34.6875 38.117188 29.589844 33.320312 27.347656 Z M 33.320312 27.347656 "/>
<path style=" stroke:none;fill-rule:nonzero;fill:rgb(90.980392%,7.058824%,37.647059%);fill-opacity:1;" d="M 49.0625 32.738281 C 49.0625 32.738281 57.011719 36.082031 55.242188 38.308594 C 53.476562 40.535156 49.0625 32.738281 49.0625 32.738281 Z M 49.0625 32.738281 "/>
<path style=" stroke:none;fill-rule:nonzero;fill:rgb(90.980392%,7.058824%,37.647059%);fill-opacity:1;" d="M 34.269531 30.066406 C 34.269531 30.066406 50.828125 48.332031 49.28125 49.445312 C 47.738281 50.558594 34.269531 30.066406 34.269531 30.066406 Z M 34.269531 30.066406 "/>
<path style=" stroke:none;fill-rule:nonzero;fill:rgb(90.980392%,7.058824%,37.647059%);fill-opacity:1;" d="M 31.175781 28.730469 C 31.175781 28.730469 38.148438 40.445312 36.726562 41.582031 C 35.304688 42.722656 31.175781 28.730469 31.175781 28.730469 Z M 31.175781 28.730469 "/>
<path style=" stroke:none;fill-rule:nonzero;fill:rgb(24.705882%,23.921569%,33.72549%);fill-opacity:1;" d="M 39.070312 45.96875 C 38.980469 45.96875 38.894531 45.957031 38.8125 45.925781 C 36.257812 45.082031 31.105469 29.867188 30.527344 28.132812 L 30.011719 26.59375 L 30.917969 27.9375 C 30.945312 27.976562 33.65625 32 36.058594 36.164062 C 40.503906 43.859375 40.136719 45.371094 39.472656 45.839844 C 39.355469 45.925781 39.214844 45.972656 39.070312 45.96875 Z M 31.507812 29.632812 C 33.386719 35.011719 37.167969 44.914062 38.949219 45.503906 C 39.039062 45.542969 39.140625 45.53125 39.21875 45.476562 C 39.585938 45.21875 39.96875 43.816406 35.679688 36.390625 C 34.15625 33.753906 32.511719 31.175781 31.507812 29.632812 Z M 31.507812 29.632812 "/>
<path style=" stroke:none;fill-rule:nonzero;fill:rgb(90.980392%,7.058824%,37.647059%);fill-opacity:1;" d="M 28.226562 28.285156 C 28.226562 28.285156 21.953125 46.960938 25.804688 46.769531 C 29.652344 46.578125 28.226562 28.285156 28.226562 28.285156 Z M 28.226562 28.285156 "/>
<path style=" stroke:none;fill-rule:nonzero;fill:rgb(24.705882%,23.921569%,33.72549%);fill-opacity:1;" d="M 24.242188 49.890625 C 23.566406 49.890625 23.046875 49.625 22.695312 49.097656 C 20.210938 45.363281 27.570312 28.894531 27.886719 28.195312 L 28.222656 27.445312 L 28.304688 28.261719 C 28.375 28.929688 29.96875 44.648438 26.359375 48.847656 C 25.789062 49.507812 25.109375 49.859375 24.339844 49.890625 C 24.308594 49.890625 24.273438 49.890625 24.242188 49.890625 Z M 27.945312 29.164062 C 26.488281 32.535156 21.007812 45.761719 23.0625 48.851562 C 23.34375 49.269531 23.753906 49.464844 24.324219 49.445312 C 24.976562 49.417969 25.53125 49.128906 26.023438 48.554688 C 29.042969 45.042969 28.226562 32.554688 27.945312 29.164062 Z M 27.945312 29.164062 "/>
<path style=" stroke:none;fill-rule:nonzero;fill:rgb(90.980392%,7.058824%,37.647059%);fill-opacity:1;" d="M 26.058594 29.214844 C 26.058594 29.214844 15.527344 41.367188 16.492188 42.644531 C 17.457031 43.925781 26.058594 29.214844 26.058594 29.214844 Z M 26.058594 29.214844 "/>
<path style=" stroke:none;fill-rule:nonzero;fill:rgb(24.705882%,23.921569%,33.72549%);fill-opacity:1;" d="M 13.324219 47.074219 C 13.183594 47.078125 13.046875 47.03125 12.9375 46.945312 C 12.785156 46.824219 12.695312 46.636719 12.6875 46.441406 C 12.421875 43.421875 26.441406 27.691406 27.039062 27.023438 L 28.449219 25.441406 L 27.394531 27.285156 C 26.945312 28.066406 16.335938 46.5 13.480469 47.058594 C 13.429688 47.070312 13.375 47.074219 13.324219 47.074219 Z M 25.878906 29.007812 C 21.230469 34.332031 12.941406 44.304688 13.125 46.402344 C 13.121094 46.476562 13.152344 46.546875 13.207031 46.59375 C 13.261719 46.632812 13.332031 46.644531 13.394531 46.621094 C 15.371094 46.234375 22.265625 35.140625 25.878906 29.007812 Z M 25.878906 29.007812 "/>
<path style=" stroke:none;fill-rule:nonzero;fill:rgb(90.980392%,7.058824%,37.647059%);fill-opacity:1;" d="M 22.898438 21.03125 C 22.898438 21.03125 13.714844 10.089844 5.222656 11.148438 C -3.265625 12.210938 22.898438 21.03125 22.898438 21.03125 Z M 22.898438 21.03125 "/>
<path style=" stroke:none;fill-rule:nonzero;fill:rgb(24.705882%,23.921569%,33.72549%);fill-opacity:1;" d="M 24.125 21.542969 L 23.402344 21.375 C 23.34375 21.363281 17.539062 20.019531 11.800781 18.304688 C 0.0507812 14.800781 0.0117188 13.1875 0 12.65625 C -0.015625 12.015625 0.628906 11.523438 1.972656 11.144531 C 6.957031 9.742188 12.582031 12.503906 16.421875 15.070312 C 19.003906 16.808594 21.410156 18.796875 23.609375 21.003906 Z M 4.824219 11.207031 C 3.902344 11.203125 2.980469 11.328125 2.089844 11.574219 C 1.019531 11.875 0.433594 12.257812 0.441406 12.644531 C 0.492188 14.785156 13.523438 18.597656 22.738281 20.765625 C 20.558594 18.65625 12.328125 11.207031 4.824219 11.207031 Z M 4.824219 11.207031 "/>
<path style=" stroke:none;fill-rule:nonzero;fill:rgb(90.980392%,7.058824%,37.647059%);fill-opacity:1;" d="M 15.722656 20.269531 C 15.722656 20.269531 3.578125 19.375 4.460938 21.605469 C 5.34375 23.832031 15.722656 20.269531 15.722656 20.269531 Z M 15.722656 20.269531 "/>
<path style=" stroke:none;fill-rule:nonzero;fill:rgb(90.980392%,7.058824%,37.647059%);fill-opacity:1;" d="M 18.8125 12.027344 C 18.8125 12.027344 18.152344 8.910156 17.046875 9.578125 C 15.941406 10.246094 18.8125 12.027344 18.8125 12.027344 Z M 18.8125 12.027344 "/>
<path style=" stroke:none;fill-rule:nonzero;fill:rgb(90.980392%,7.058824%,37.647059%);fill-opacity:1;" d="M 30 14.234375 C 30 14.234375 33.03125 1.390625 31.65625 1.34375 C 30.28125 1.296875 30 14.234375 30 14.234375 Z M 30 14.234375 "/>
<path style=" stroke:none;fill-rule:nonzero;fill:rgb(24.705882%,23.921569%,33.72549%);fill-opacity:1;" d="M 29.4375 17.078125 L 29.410156 15.371094 C 29.402344 14.824219 29.234375 1.933594 30.894531 0.234375 C 31.023438 0.0898438 31.207031 0.00390625 31.398438 0 C 31.585938 0 31.761719 0.0898438 31.871094 0.246094 C 33.148438 1.894531 30.1875 14.042969 29.847656 15.421875 Z M 31.398438 0.445312 C 31.375 0.445312 31.308594 0.445312 31.210938 0.546875 C 30.113281 1.671875 29.859375 9.140625 29.84375 13.535156 C 31.058594 8.300781 32.300781 1.519531 31.523438 0.519531 C 31.496094 0.472656 31.449219 0.445312 31.398438 0.445312 Z M 31.398438 0.445312 "/>
<path style=" stroke:none;fill-rule:nonzero;fill:rgb(90.980392%,7.058824%,37.647059%);fill-opacity:1;" d="M 43.984375 16.035156 C 43.984375 16.035156 45.308594 12.695312 46.632812 13.585938 C 47.957031 14.476562 43.984375 16.035156 43.984375 16.035156 Z M 43.984375 16.035156 "/>
<path style=" stroke:none;fill-rule:nonzero;fill:rgb(90.980392%,7.058824%,37.647059%);fill-opacity:1;" d="M 31.398438 45.65625 C 31.398438 45.65625 29.632812 58.796875 32.945312 58.574219 C 36.253906 58.351562 31.398438 45.65625 31.398438 45.65625 Z M 31.398438 45.65625 "/>
<path style=" stroke:none;fill-rule:nonzero;fill:rgb(100%,72.54902%,72.54902%);fill-opacity:1;" d="M 40.636719 42.667969 C 40.636719 42.667969 38.945312 39.824219 38.945312 37.832031 C 38.945312 37.832031 35.984375 34.703125 36.828125 33.847656 C 37.675781 32.996094 39.507812 36.269531 39.507812 36.269531 C 39.507812 36.269531 36.125 32.425781 37.113281 31.859375 C 38.097656 31.289062 41.34375 35.554688 41.34375 35.554688 L 42.472656 34.988281 C 42.472656 34.988281 40.074219 29.023438 41.765625 28.871094 C 42.542969 28.800781 44.304688 34.5625 44.304688 34.5625 L 46.136719 39.253906 C 46.136719 39.253906 46.84375 40.960938 46.5625 41.957031 C 46.390625 42.566406 46.246094 43.183594 46.136719 43.808594 Z M 40.636719 42.667969 "/>
<use xlink:href="#surface5" mask="url(#mask0)"/>
<path style=" stroke:none;fill-rule:nonzero;fill:rgb(100%,72.54902%,72.54902%);fill-opacity:1;" d="M 45.574219 43.378906 C 45.574219 43.378906 46.5625 41.816406 46.203125 39.425781 C 45.847656 37.035156 43.882812 35.699219 43.882812 35.699219 C 43.882812 35.699219 42.613281 36.695312 43.882812 39.253906 C 43.882812 39.253906 42.332031 40.679688 43.597656 42.953125 "/>
<use xlink:href="#surface8" mask="url(#mask1)"/>
<path style=" stroke:none;fill-rule:nonzero;fill:rgb(100%,72.54902%,72.54902%);fill-opacity:1;" d="M 42.332031 35.414062 L 41.203125 33.847656 C 41.203125 33.847656 37.535156 33.28125 37.957031 34.5625 C 38.382812 35.839844 40.074219 35.273438 40.074219 35.273438 L 41.0625 36.269531 Z M 42.332031 35.414062 "/>
<path style=" stroke:none;fill-rule:nonzero;fill:rgb(100%,72.54902%,72.54902%);fill-opacity:1;" d="M 68.492188 54.121094 L 67.785156 59.8125 L 78.785156 60.523438 L 78.785156 53.695312 Z M 68.492188 54.121094 "/>
<path style=" stroke:none;fill-rule:nonzero;fill:rgb(81.176471%,80%,87.843137%);fill-opacity:1;" d="M 98.953125 85.988281 L 90.03125 67.992188 C 89.5 66.210938 87.835938 63.3125 82.664062 61.449219 L 78.785156 58.136719 L 75.894531 58.035156 L 64.332031 56.328125 C 64.332031 56.328125 55.445312 55.757812 49.664062 59.3125 L 48.113281 58.601562 C 48.113281 58.601562 45.574219 49.496094 46.703125 42.953125 L 40.214844 42.386719 C 40.214844 42.386719 36.6875 57.890625 38.382812 62.585938 C 40.074219 67.28125 46.277344 70.695312 46.277344 70.695312 L 51.777344 76.242188 L 53.894531 85.917969 L 86.894531 85.917969 L 87.421875 83.378906 L 90 85.917969 Z M 98.953125 85.988281 "/>
<path style=" stroke:none;fill-rule:nonzero;fill:rgb(81.176471%,80%,87.843137%);fill-opacity:1;" d="M 86.480469 53.695312 C 76.089844 56.527344 65.878906 56.726562 55.882812 53.738281 C 54.707031 53.386719 53.902344 52.347656 53.902344 51.164062 L 53.902344 21.710938 C 53.902344 20.390625 54.898438 19.269531 56.253906 19.054688 C 65.683594 17.5625 75.671875 17.675781 86.121094 19.109375 C 87.5 19.296875 88.527344 20.433594 88.527344 21.773438 L 88.527344 51.105469 C 88.527344 52.308594 87.691406 53.367188 86.480469 53.695312 Z M 86.480469 53.695312 "/>
<path style=" stroke:none;fill-rule:nonzero;fill:rgb(24.705882%,23.921569%,33.72549%);fill-opacity:1;" d="M 65.054688 33.539062 C 65.054688 33.539062 62.664062 30.015625 64.132812 29.089844 C 65.605469 28.160156 67.808594 30.757812 67.808594 30.757812 C 67.808594 30.757812 70.566406 28.347656 72.039062 29.273438 C 73.507812 30.199219 70.566406 33.539062 70.566406 33.539062 C 70.566406 33.539062 72.773438 34.09375 72.957031 35.578125 C 73.140625 37.0625 73.875 40.957031 70.75 41.140625 C 69.078125 41.242188 68.140625 40.753906 67.632812 40.28125 C 67.25 39.9375 66.675781 39.929688 66.285156 40.265625 C 65.226562 41.167969 63.316406 42.203125 61.925781 39.65625 C 61.375 35.765625 65.054688 33.539062 65.054688 33.539062 Z M 65.054688 33.539062 "/>
<path style=" stroke:none;fill-rule:nonzero;fill:rgb(24.705882%,23.921569%,33.72549%);fill-opacity:1;" d="M 82.699219 33.910156 C 82.699219 33.910156 85.089844 30.386719 83.621094 29.460938 C 82.148438 28.53125 79.941406 31.128906 79.941406 31.128906 C 79.941406 31.128906 77.1875 28.71875 75.714844 29.644531 C 74.246094 30.570312 77.1875 33.910156 77.1875 33.910156 C 77.1875 33.910156 74.980469 34.464844 74.796875 35.949219 C 74.613281 37.433594 73.875 41.328125 77 41.511719 C 78.675781 41.613281 79.613281 41.125 80.121094 40.652344 C 80.5 40.308594 81.078125 40.300781 81.46875 40.636719 C 82.527344 41.539062 84.4375 42.574219 85.824219 40.027344 C 86.378906 36.136719 82.699219 33.910156 82.699219 33.910156 Z M 82.699219 33.910156 "/>
<path style=" stroke:none;fill-rule:nonzero;fill:rgb(24.705882%,23.921569%,33.72549%);fill-opacity:1;" d="M 62.152344 43.539062 C 62.152344 43.539062 65.601562 46.339844 72.953125 46.164062 C 80.308594 45.988281 82.683594 45.683594 84.257812 43.933594 C 85.828125 42.1875 86.292969 44.207031 85.804688 45.53125 C 85.316406 46.851562 84.691406 49.113281 81.027344 49.476562 C 78.617188 49.71875 73.402344 49.777344 70.125 49.789062 C 67.574219 49.808594 65.054688 49.242188 62.753906 48.132812 C 62.722656 48.117188 62.691406 48.101562 62.660156 48.089844 C 61.238281 47.378906 60.335938 45.917969 60.335938 44.316406 C 60.335938 43.691406 60.445312 43.355469 60.847656 43.230469 C 61.574219 43.011719 62.152344 43.539062 62.152344 43.539062 Z M 62.152344 43.539062 "/>
<path style=" stroke:none;fill-rule:nonzero;fill:rgb(24.705882%,23.921569%,33.72549%);fill-opacity:1;" d="M 72.699219 56.371094 C 67.078125 56.371094 61.492188 55.519531 56.125 53.832031 C 54.761719 53.414062 53.832031 52.140625 53.835938 50.703125 L 53.835938 16.195312 C 53.832031 14.589844 54.984375 13.21875 56.554688 12.964844 C 66.683594 11.28125 77.894531 11.300781 89.886719 13.027344 C 91.480469 13.265625 92.664062 14.644531 92.667969 16.269531 L 92.667969 50.628906 C 92.664062 52.097656 91.699219 53.378906 90.300781 53.785156 C 84.429688 55.464844 78.628906 56.332031 73.050781 56.367188 C 72.933594 56.371094 72.816406 56.371094 72.699219 56.371094 Z M 72.308594 11.960938 C 67.046875 11.941406 61.789062 12.359375 56.59375 13.203125 C 55.136719 13.441406 54.070312 14.710938 54.074219 16.195312 L 54.074219 50.703125 C 54.074219 52.035156 54.933594 53.210938 56.195312 53.601562 C 66.910156 56.96875 78.363281 56.949219 90.238281 53.550781 L 90.269531 53.667969 L 90.238281 53.550781 C 91.53125 53.179688 92.425781 51.988281 92.429688 50.628906 L 92.429688 16.269531 C 92.425781 14.765625 91.328125 13.488281 89.851562 13.269531 C 84.042969 12.414062 78.179688 11.976562 72.308594 11.960938 Z M 72.308594 11.960938 "/>
<path style=" stroke:none;fill-rule:nonzero;fill:rgb(24.705882%,23.921569%,33.72549%);fill-opacity:1;" d="M 71.574219 17.074219 C 68.933594 17.074219 66.671875 16.957031 64.820312 16.792969 C 59.003906 16.285156 55.867188 15.257812 55.835938 15.246094 L 55.910156 15.019531 C 55.941406 15.027344 59.058594 16.046875 64.855469 16.554688 C 70.203125 17.023438 78.992188 17.132812 90.492188 15.011719 L 90.535156 15.25 C 82.980469 16.644531 76.589844 17.074219 71.574219 17.074219 Z M 71.574219 17.074219 "/>
</g>
</svg>
